<?xml version="1.0" encoding="utf-8"?>
<svg xmlns="http://www.w3.org/2000/svg" style="margin: auto; background: none; display: block; shape-rendering: auto;" width="164" height="34" preserveAspectRatio="xMidYMid">
<style type="text/css">
  text {
    text-anchor: middle; font-size: 28px; opacity: 0;
  }
</style>
<g style="transform-origin: 82px 17px; transform: scale(1.03704);">
<g transform="translate(82,17)">
  <g transform="translate(0,0)"><g class="path" style="transform: matrix(1, 0, 0, 1, 0, 0); transform-origin: -64.57px -2.16956px; animation: 14.2857s linear -8.48571s infinite normal forwards running tremble-e3819b47-814b-4a94-a512-ae5d9dc7cd92;"><path d="M11.04 0L2.16 0L2.48-6.56L2.16-18.09L5.99-18.77L5.62-7.02L5.80-2.65L11.34-3.08L11.04 0" fill="#3c0f0f" stroke="none" stroke-width="none" transform="translate(-71.31997680664062,7.21544076538086)" style="fill: rgb(60, 15, 15);"></path></g><g class="path" style="transform: matrix(1, 0, 0, 1, 0, 0); transform-origin: -55.74px -2.16956px; animation: 14.2857s linear -7.54286s infinite normal forwards running tremble-e3819b47-814b-4a94-a512-ae5d9dc7cd92;"><path d="M13.66-18.09L17.50-18.77L17.12-7.02L17.44 0L13.66 0L13.99-6.56L13.66-18.09" fill="#3c0f0f" stroke="none" stroke-width="none" transform="translate(-71.31997680664062,7.21544076538086)" style="fill: rgb(249, 26, 16);"></path></g><g class="path" style="transform: matrix(1, 0, 0, 1, 0, 0); transform-origin: -43.58px -2.10956px; animation: 14.2857s linear -6.6s infinite normal forwards running tremble-e3819b47-814b-4a94-a512-ae5d9dc7cd92;"><path d="M26.35-8.37L27.65-3.38L27.97-3.38L29.32-8.02L32.16-18.79L35.42-18.31L32.21-7.59L30.10-0.22L25.11 0.14L23.19-7.07L20.06-18.12L23.89-18.79L26.35-8.37" fill="#3c0f0f" stroke="none" stroke-width="none" transform="translate(-71.31997680664062,7.21544076538086)" style="fill: rgb(60, 15, 15);"></path></g><g class="path" style="transform: matrix(1, 0, 0, 1, 0, 0); transform-origin: -28.24px -2.09956px; animation: 14.2857s linear -5.65714s infinite normal forwards running tremble-e3819b47-814b-4a94-a512-ae5d9dc7cd92;"><path d="M47.87 0L37.99 0L38.31-6.56L37.99-18.63L48.11-18.63L47.82-15.74L41.74-15.74L41.58-10.96L46.98-10.96L46.68-8.10L41.47-8.10L41.44-7.02L41.63-2.86L48.17-2.86L47.87 0" fill="#3c0f0f" stroke="none" stroke-width="none" transform="translate(-71.31997680664062,7.21544076538086)" style="fill: rgb(249, 26, 16);"></path></g><g class="path" style="transform: matrix(1, 0, 0, 1, 0, 0); transform-origin: -11.42px -2.08456px; animation: 14.2857s linear -4.71429s infinite normal forwards running tremble-e3819b47-814b-4a94-a512-ae5d9dc7cd92;"><path d="M53.62-2.46L55.73-5.37L55.73-5.37Q58.02-3.08 60.32-3.08L60.32-3.08L60.32-3.08Q61.51-3.08 62.22-3.63L62.22-3.63L62.22-3.63Q62.94-4.18 62.94-5.06L62.94-5.06L62.94-5.06Q62.94-5.94 62.07-6.55L62.07-6.55L62.07-6.55Q61.21-7.16 59.98-7.61L59.98-7.61L59.98-7.61Q58.75-8.07 57.54-8.65L57.54-8.65L57.54-8.65Q56.32-9.23 55.46-10.31L55.46-10.31L55.46-10.31Q54.59-11.39 54.59-12.93L54.59-12.93L54.59-12.93Q54.59-15.36 56.62-17.13L56.62-17.13L56.62-17.13Q58.64-18.90 61.42-18.90L61.42-18.90L61.42-18.90Q62.69-18.90 63.88-18.63L63.88-18.63L63.88-18.63Q65.07-18.36 66.18-17.85L66.18-17.85L64.34-13.90L64.34-13.90Q63.58-14.50 62.28-15.00L62.28-15.00L62.28-15.00Q60.97-15.50 59.98-15.50L59.98-15.50L59.98-15.50Q58.99-15.50 58.39-15.03L58.39-15.03L58.39-15.03Q57.78-14.55 57.78-13.77L57.78-13.77L57.78-13.77Q57.78-12.99 58.64-12.38L58.64-12.38L58.64-12.38Q59.51-11.77 60.74-11.31L60.74-11.31L60.74-11.31Q61.96-10.85 63.19-10.30L63.19-10.30L63.19-10.30Q64.42-9.75 65.29-8.67L65.29-8.67L65.29-8.67Q66.15-7.59 66.15-6.05L66.15-6.05L66.15-6.05Q66.15-3.51 64.13-1.61L64.13-1.61L64.13-1.61Q62.10 0.30 59.40 0.30L59.40 0.30L59.40 0.30Q57.37 0.30 55.81-0.68L55.81-0.68L55.81-0.68Q54.43-1.51 53.86-2.16L53.86-2.16L53.62-2.46" fill="#3c0f0f" stroke="none" stroke-width="none" transform="translate(-71.31997680664062,7.21544076538086)" style="fill: rgb(60, 15, 15);"></path></g><g class="path" style="transform: matrix(1, 0, 0, 1, 0, 0); transform-origin: 2.09002px -2.09956px; animation: 14.2857s linear -3.77143s infinite normal forwards running tremble-e3819b47-814b-4a94-a512-ae5d9dc7cd92;"><path d="M71.63-15.90L66.85-15.53L67.15-18.63L79.97-18.63L79.68-15.53L74.98-15.93L74.87-7.02L75.19 0L71.41 0L71.74-6.56L71.63-15.90" fill="#3c0f0f" stroke="none" stroke-width="none" transform="translate(-71.31997680664062,7.21544076538086)" style="fill: rgb(249, 26, 16);"></path></g><g class="path" style="transform: matrix(1, 0, 0, 1, 0, 0); transform-origin: 17.25px -1.94956px; animation: 14.2857s linear -2.82857s infinite normal forwards running tremble-e3819b47-814b-4a94-a512-ae5d9dc7cd92;"><path d="M86.97-7.18L86.97-7.18L85.43-7.18L85.43-7.02L85.75 0L82.13 0L82.46-6.56L82.13-18.63L87.99-18.63L87.99-18.63Q90.58-18.63 92.12-17.23L92.12-17.23L92.12-17.23Q93.66-15.82 93.66-13.50L93.66-13.50L93.66-13.50Q93.66-11.74 92.76-10.30L92.76-10.30L92.76-10.30Q91.85-8.86 90.31-8.02L90.31-8.02L95.01-1.38L91.75 0.30L87.53-7.21L87.53-7.21Q87.34-7.18 86.97-7.18zM87.02-15.90L87.02-15.90L85.70-15.90L85.51-9.80L87.34-9.80L87.34-9.80Q88.69-9.80 89.44-10.69L89.44-10.69L89.44-10.69Q90.18-11.58 90.18-13.23L90.18-13.23L90.18-13.23Q90.18-15.90 87.02-15.90" fill="#3c0f0f" stroke="none" stroke-width="none" transform="translate(-71.31997680664062,7.21544076538086)" style="fill: rgb(60, 15, 15);"></path></g><g class="path" style="transform: matrix(1, 0, 0, 1, 0, 0); transform-origin: 31.54px -2.09956px; animation: 14.2857s linear -1.88571s infinite normal forwards running tremble-e3819b47-814b-4a94-a512-ae5d9dc7cd92;"><path d="M107.65 0L97.77 0L98.09-6.56L97.77-18.63L107.89-18.63L107.59-15.74L101.52-15.74L101.36-10.96L106.76-10.96L106.46-8.10L101.25-8.10L101.22-7.02L101.41-2.86L107.95-2.86L107.65 0" fill="#3c0f0f" stroke="none" stroke-width="none" transform="translate(-71.31997680664062,7.21544076538086)" style="fill: rgb(249, 26, 16);"></path></g><g class="path" style="transform: matrix(1, 0, 0, 1, 0, 0); transform-origin: 46.255px -2.10956px; animation: 14.2857s linear -0.942857s infinite normal forwards running tremble-e3819b47-814b-4a94-a512-ae5d9dc7cd92;"><path d="M125.85-0.46L121.96 0.14L120.64-5.13L114.18-5.13L112.75 0L109.30-0.27L111.67-6.83L115.29-18.44L120.12-18.79L123.61-7.24L125.85-0.46zM119.83-7.99L117.69-15.28L117.34-15.28L115.02-7.99L119.83-7.99" fill="#3c0f0f" stroke="none" stroke-width="none" transform="translate(-71.31997680664062,7.21544076538086)" style="fill: rgb(60, 15, 15);"></path></g><g class="path" style="transform: matrix(1, 0, 0, 1, 0, 0); transform-origin: 65.085px -2.19456px; animation: 14.2857s linear 0s infinite normal forwards running tremble-e3819b47-814b-4a94-a512-ae5d9dc7cd92;"><path d="M132.84-18.82L136.24-8.42L136.51-8.42L140.45-18.68L144.18-18.58L144.29-6.97L144.80 0L141.16 0L141.29-7.02L140.99-14.12L137.75-5.18L134.43-5.02L131.41-14.12L131.17-7.02L131.35 0L128.01 0L128.38-6.56L128.55-18.14L132.84-18.82" fill="#3c0f0f" stroke="none" stroke-width="none" transform="translate(-71.31997680664062,7.21544076538086)" style="fill: rgb(249, 26, 16);"></path></g></g>
</g>
</g>
<style id="tremble-e3819b47-814b-4a94-a512-ae5d9dc7cd92" data-anikit="">@keyframes tremble-e3819b47-814b-4a94-a512-ae5d9dc7cd92 {
  0% { transform: translate(0px,0px) rotate(0deg) scale(1) }
  3.33333% { transform: translate(-0.18923px,1.45485px) rotate(0deg) scale(1) }
  6.66667% { transform: translate(-0.84296px,-1.32524px) rotate(0deg) scale(1) }
  10% { transform: translate(0.67971px,1.00422px) rotate(0deg) scale(1) }
  13.33333% { transform: translate(-0.5056px,0.83616px) rotate(0deg) scale(1) }
  16.66667% { transform: translate(1.31368px,-0.51401px) rotate(0deg) scale(1) }
  20% { transform: translate(-1.21184px,1.49193px) rotate(0deg) scale(1) }
  23.33333% { transform: translate(1.09065px,-0.21259px) rotate(0deg) scale(1) }
  26.66667% { transform: translate(-1.49916px,0.56159px) rotate(0deg) scale(1) }
  30% { transform: translate(1.48086px,1.21228px) rotate(0deg) scale(1) }
  33.33333% { transform: translate(-1.43889px,-1.152px) rotate(0deg) scale(1) }
  36.66667% { transform: translate(1.35914px,1.34835px) rotate(0deg) scale(1) }
  40% { transform: translate(-1.42834px,0.3091px) rotate(0deg) scale(1) }
  43.33333% { transform: translate(1.47472px,-1.49889px) rotate(0deg) scale(1) }
  46.66667% { transform: translate(-0.92402px,1.4416px) rotate(0deg) scale(1) }
  50% { transform: translate(1.0657px,-0.75306px) rotate(0deg) scale(1) }
  53.33333% { transform: translate(-1.19035px,-1.07484px) rotate(0deg) scale(1) }
  56.66667% { transform: translate(0.28828px,0.79337px) rotate(0deg) scale(1) }
  60% { transform: translate(-0.47167px,-1.42789px) rotate(0deg) scale(1) }
  63.33333% { transform: translate(0.64753px,-0.09795px) rotate(0deg) scale(1) }
  66.66667% { transform: translate(0.41006px,-0.26292px) rotate(0deg) scale(1) }
  70% { transform: translate(-0.22477px,-1.3683px) rotate(0deg) scale(1) }
  73.33333% { transform: translate(0.03588px,0.92931px) rotate(0deg) scale(1) }
  76.66667% { transform: translate(-1.01937px,-1.18398px) rotate(0deg) scale(1) }
  80% { transform: translate(0.8724px,-0.60494px) rotate(0deg) scale(1) }
  83.33333% { transform: translate(-0.71151px,1.4786px) rotate(0deg) scale(1) }
  86.66667% { transform: translate(1.40734px,-1.49607px) rotate(0deg) scale(1) }
  90% { transform: translate(-1.33062px,0.46957px) rotate(0deg) scale(1) }
  93.33333% { transform: translate(1.23264px,1.26738px) rotate(0deg) scale(1) }
  96.66667% { transform: translate(-1.48975px,-1.03867px) rotate(0deg) scale(1) }
  100% { transform: translate(0,0) rotate(0) scale(1) }
}</style></svg>