<?xml version="1.0" encoding="utf-8"?>
<svg xmlns="http://www.w3.org/2000/svg" style="margin: auto; background: rgb(241, 242, 243); display: block; shape-rendering: auto; animation-play-state: running; animation-delay: 0s;" width="253" height="46" preserveAspectRatio="xMidYMid">
<style type="text/css" style="animation-play-state: running; animation-delay: 0s;">
  text {
    text-anchor: middle; font-size: 30px; opacity: 0;
  }
</style>
<g style="transform-origin: 126.5px 23px; transform: scale(1); animation-play-state: running; animation-delay: 0s;">
<g transform="translate(126.5,23)" style="animation-play-state: running; animation-delay: 0s;">
  <g transform="translate(0,0)" style="animation-play-state: running; animation-delay: 0s;"><g class="path" style="transform: scale(1); transform-origin: -92.2px -1.99278px; animation: 1s linear -0.605s infinite normal forwards running beat-1a988666-a248-4063-add7-05eba05ed67d;"><path d="M8.20-7.88L8.20 0L2.39 0L2.39-21.09L13.78-21.09L13.78-21.09Q15.26-21.09 16.62-20.70L16.62-20.70L16.62-20.70Q17.97-20.30 19.01-19.50L19.01-19.50L19.01-19.50Q20.05-18.71 20.68-17.50L20.68-17.50L20.68-17.50Q21.30-16.29 21.30-14.66L21.30-14.66L21.30-14.66Q21.30-13.64 21.01-12.74L21.01-12.74L21.01-12.74Q20.71-11.84 20.19-11.09L20.19-11.09L20.19-11.09Q19.67-10.34 18.97-9.74L18.97-9.74L18.97-9.74Q18.27-9.14 17.43-8.73L17.43-8.73L17.43-8.73Q16.60-8.32 15.67-8.10L15.67-8.10L15.67-8.10Q14.74-7.88 13.78-7.88L13.78-7.88L8.20-7.88zM15.41-14.66L15.41-14.66L15.41-14.66Q15.41-16.70 14.38-17.86L14.38-17.86L14.38-17.86Q13.34-19.03 11.26-19.03L11.26-19.03L8.20-19.03L8.20-9.87L11.26-9.87L11.26-9.87Q12.38-9.87 13.16-10.23L13.16-10.23L13.16-10.23Q13.95-10.59 14.44-11.24L14.44-11.24L14.44-11.24Q14.94-11.88 15.18-12.75L15.18-12.75L15.18-12.75Q15.41-13.62 15.41-14.66" fill="#f91a10" stroke="none" stroke-width="none" transform="translate(-104.04498291015625,8.552216898600262)" style="fill: rgb(249, 26, 16); animation-play-state: running; animation-delay: 0s;"></path></g><g class="path" style="transform: scale(1); transform-origin: -77.7px -12.4478px; animation: 1s linear -0.55s infinite normal forwards running beat-1a988666-a248-4063-add7-05eba05ed67d;"><path d="M29.05-21.01L29.05-21.01L29.05-21.01Q29.05-20.45 28.84-19.95L28.84-19.95L28.84-19.95Q28.62-19.45 28.26-19.09L28.26-19.09L28.26-19.09Q27.89-18.72 27.39-18.51L27.39-18.51L27.39-18.51Q26.89-18.30 26.34-18.30L26.34-18.30L26.34-18.30Q25.78-18.30 25.29-18.51L25.29-18.51L25.29-18.51Q24.80-18.72 24.43-19.09L24.43-19.09L24.43-19.09Q24.07-19.45 23.85-19.95L23.85-19.95L23.85-19.95Q23.64-20.45 23.64-21.01L23.64-21.01L23.64-21.01Q23.64-21.56 23.85-22.05L23.85-22.05L23.85-22.05Q24.07-22.54 24.43-22.91L24.43-22.91L24.43-22.91Q24.80-23.28 25.29-23.49L25.29-23.49L25.29-23.49Q25.78-23.70 26.34-23.70L26.34-23.70L26.34-23.70Q26.89-23.70 27.39-23.49L27.39-23.49L27.39-23.49Q27.89-23.28 28.26-22.91L28.26-22.91L28.26-22.91Q28.62-22.54 28.84-22.05L28.84-22.05L28.84-22.05Q29.05-21.56 29.05-21.01" fill="#f91a10" stroke="none" stroke-width="none" transform="translate(-104.04498291015625,8.552216898600262)" style="fill: rgb(0, 0, 0); animation-play-state: running; animation-delay: 0s;"></path></g><g class="path" style="transform: scale(1); transform-origin: -77.7px 0.102217px; animation: 1s linear -0.495s infinite normal forwards running beat-1a988666-a248-4063-add7-05eba05ed67d;"><path d="M28.83-16.90L28.83 0L23.86 0L23.86-16.90L28.83-16.90" fill="#f91a10" stroke="none" stroke-width="none" transform="translate(-104.04498291015625,8.552216898600262)" style="fill: rgb(249, 26, 16); animation-play-state: running; animation-delay: 0s;"></path></g><g class="path" style="transform: scale(1); transform-origin: -63.755px 0.0572166px; animation: 1s linear -0.44s infinite normal forwards running beat-1a988666-a248-4063-add7-05eba05ed67d;"><path d="M48.59-12.73L48.59-12.73L46.45-11.88L46.45-11.88Q45.94-13.49 44.74-14.36L44.74-14.36L44.74-14.36Q43.54-15.22 41.85-15.22L41.85-15.22L41.85-15.22Q40.94-15.22 40.23-14.93L40.23-14.93L40.23-14.93Q39.52-14.65 38.99-14.15L38.99-14.15L38.99-14.15Q38.45-13.65 38.08-12.99L38.08-12.99L38.08-12.99Q37.71-12.33 37.47-11.59L37.47-11.59L37.47-11.59Q37.24-10.84 37.13-10.04L37.13-10.04L37.13-10.04Q37.03-9.24 37.03-8.50L37.03-8.50L37.03-8.50Q37.03-7.69 37.12-6.87L37.12-6.87L37.12-6.87Q37.21-6.05 37.42-5.30L37.42-5.30L37.42-5.30Q37.63-4.54 37.98-3.89L37.98-3.89L37.98-3.89Q38.33-3.24 38.87-2.75L38.87-2.75L38.87-2.75Q39.40-2.27 40.14-1.99L40.14-1.99L40.14-1.99Q40.88-1.71 41.85-1.71L41.85-1.71L41.85-1.71Q42.63-1.71 43.33-1.95L43.33-1.95L43.33-1.95Q44.03-2.18 44.62-2.61L44.62-2.61L44.62-2.61Q45.21-3.03 45.66-3.62L45.66-3.62L45.66-3.62Q46.11-4.20 46.38-4.92L46.38-4.92L48.53-4.13L48.53-4.13Q48.05-2.97 47.25-2.13L47.25-2.13L47.25-2.13Q46.45-1.29 45.44-0.74L45.44-0.74L45.44-0.74Q44.43-0.19 43.27 0.07L43.27 0.07L43.27 0.07Q42.11 0.34 40.93 0.34L40.93 0.34L40.93 0.34Q39.01 0.34 37.37-0.31L37.37-0.31L37.37-0.31Q35.73-0.97 34.53-2.15L34.53-2.15L34.53-2.15Q33.34-3.33 32.67-4.94L32.67-4.94L32.67-4.94Q31.99-6.56 31.99-8.50L31.99-8.50L31.99-8.50Q31.99-10.44 32.66-12.07L32.66-12.07L32.66-12.07Q33.33-13.70 34.51-14.87L34.51-14.87L34.51-14.87Q35.70-16.04 37.34-16.68L37.34-16.68L37.34-16.68Q38.98-17.33 40.93-17.33L40.93-17.33L40.93-17.33Q42.16-17.33 43.33-17.06L43.33-17.06L43.33-17.06Q44.50-16.79 45.51-16.22L45.51-16.22L45.51-16.22Q46.51-15.66 47.31-14.79L47.31-14.79L47.31-14.79Q48.11-13.93 48.59-12.73" fill="#f91a10" stroke="none" stroke-width="none" transform="translate(-104.04498291015625,8.552216898600262)" style="fill: rgb(0, 0, 0); animation-play-state: running; animation-delay: 0s;"></path></g><g class="path" style="transform: scale(1); transform-origin: -44.22px -3.01778px; animation: 1s linear -0.385s infinite normal forwards running beat-1a988666-a248-4063-add7-05eba05ed67d;"><path d="M56.47-5.68L56.47 0L51.52 0L51.52-23.14L56.47-23.14L56.47-7.95L56.47-7.95Q57.69-8.83 58.86-9.89L58.86-9.89L58.86-9.89Q60.04-10.94 61.11-12.11L61.11-12.11L61.11-12.11Q62.18-13.27 63.10-14.49L63.10-14.49L63.10-14.49Q64.01-15.70 64.70-16.92L64.70-16.92L68.07-16.92L68.07-16.92Q67.05-15.19 65.64-13.47L65.64-13.47L65.64-13.47Q64.23-11.75 62.58-10.18L62.58-10.18L68.13 0L62.67 0L58.73-7.06L58.73-7.06Q57.63-6.31 56.47-5.68L56.47-5.68" fill="#f91a10" stroke="none" stroke-width="none" transform="translate(-104.04498291015625,8.552216898600262)" style="fill: rgb(249, 26, 16); animation-play-state: running; animation-delay: 0s;"></path></g><g class="path" style="transform: scale(1); transform-origin: -14.775px -1.76278px; animation: 1s linear -0.33s infinite normal forwards running beat-1a988666-a248-4063-add7-05eba05ed67d;"><path d="M95.14-9.84L100.36-7.37L100.36-7.37Q99.83-6.27 99.13-5.26L99.13-5.26L99.13-5.26Q98.44-4.25 97.57-3.37L97.57-3.37L99.48-1.57L96.15 0.82L94.45-0.98L94.45-0.98Q93.12-0.26 91.68 0.08L91.68 0.08L91.68 0.08Q90.25 0.42 88.74 0.42L88.74 0.42L88.74 0.42Q87.63 0.42 86.42 0.33L86.42 0.33L86.42 0.33Q85.21 0.23 84.03-0.02L84.03-0.02L84.03-0.02Q82.85-0.28 81.79-0.75L81.79-0.75L81.79-0.75Q80.73-1.22 79.93-1.95L79.93-1.95L79.93-1.95Q79.13-2.68 78.65-3.72L78.65-3.72L78.65-3.72Q78.18-4.76 78.18-6.18L78.18-6.18L78.18-6.18Q78.18-7.29 78.60-8.25L78.60-8.25L78.60-8.25Q79.01-9.20 79.72-9.94L79.72-9.94L79.72-9.94Q80.43-10.68 81.36-11.18L81.36-11.18L81.36-11.18Q82.29-11.69 83.33-11.91L83.33-11.91L83.33-11.91Q82.82-12.26 82.33-12.77L82.33-12.77L82.33-12.77Q81.84-13.27 81.45-13.86L81.45-13.86L81.45-13.86Q81.06-14.46 80.82-15.10L80.82-15.10L80.82-15.10Q80.58-15.75 80.58-16.39L80.58-16.39L80.58-16.39Q80.58-17.80 81.17-18.76L81.17-18.76L81.17-18.76Q81.77-19.73 82.72-20.32L82.72-20.32L82.72-20.32Q83.67-20.92 84.87-21.18L84.87-21.18L84.87-21.18Q86.06-21.45 87.26-21.45L87.26-21.45L87.26-21.45Q88.45-21.45 89.66-21.18L89.66-21.18L89.66-21.18Q90.88-20.92 91.85-20.32L91.85-20.32L91.85-20.32Q92.83-19.72 93.44-18.76L93.44-18.76L93.44-18.76Q94.06-17.80 94.06-16.39L94.06-16.39L94.06-16.39Q94.06-15.38 93.66-14.57L93.66-14.57L93.66-14.57Q93.27-13.75 92.62-13.10L92.62-13.10L92.62-13.10Q91.98-12.45 91.17-11.94L91.17-11.94L91.17-11.94Q90.37-11.43 89.56-11.02L89.56-11.02L94.47-6.34L94.47-6.34Q94.79-7.18 94.97-8.06L94.97-8.06L94.97-8.06Q95.14-8.95 95.14-9.84L95.14-9.84zM89.47-16.07L89.47-16.07L89.47-16.07Q89.47-16.58 89.33-17.05L89.33-17.05L89.33-17.05Q89.19-17.52 88.92-17.87L88.92-17.87L88.92-17.87Q88.65-18.22 88.23-18.44L88.23-18.44L88.23-18.44Q87.82-18.65 87.26-18.65L87.26-18.65L87.26-18.65Q86.66-18.65 86.26-18.45L86.26-18.45L86.26-18.45Q85.85-18.25 85.60-17.90L85.60-17.90L85.60-17.90Q85.34-17.55 85.23-17.08L85.23-17.08L85.23-17.08Q85.12-16.61 85.12-16.07L85.12-16.07L85.12-16.07Q85.12-15.66 85.33-15.22L85.33-15.22L85.33-15.22Q85.55-14.78 85.86-14.37L85.86-14.37L85.86-14.37Q86.18-13.96 86.53-13.59L86.53-13.59L86.53-13.59Q86.88-13.23 87.17-12.96L87.17-12.96L87.17-12.96Q87.61-13.20 88.03-13.52L88.03-13.52L88.03-13.52Q88.45-13.84 88.76-14.23L88.76-14.23L88.76-14.23Q89.08-14.62 89.27-15.08L89.27-15.08L89.27-15.08Q89.47-15.54 89.47-16.07zM92.26-3.19L92.26-3.19L85.83-9.67L85.83-9.67Q84.81-9.11 84.38-8.20L84.38-8.20L84.38-8.20Q83.95-7.29 83.95-6.18L83.95-6.18L83.95-6.18Q83.95-5.19 84.35-4.42L84.35-4.42L84.35-4.42Q84.76-3.65 85.43-3.12L85.43-3.12L85.43-3.12Q86.10-2.59 86.96-2.32L86.96-2.32L86.96-2.32Q87.82-2.05 88.74-2.05L88.74-2.05L88.74-2.05Q89.71-2.05 90.60-2.32L90.60-2.32L90.60-2.32Q91.49-2.59 92.26-3.19" fill="#f91a10" stroke="none" stroke-width="none" transform="translate(-104.04498291015625,8.552216898600262)" style="fill: rgb(0, 0, 0); animation-play-state: running; animation-delay: 0s;"></path></g><g class="path" style="transform: scale(1); transform-origin: 17.8px -1.99278px; animation: 1s linear -0.275s infinite normal forwards running beat-1a988666-a248-4063-add7-05eba05ed67d;"><path d="M132.07-10.58L132.07-10.58L132.07-10.58Q132.07-9.04 131.66-7.65L131.66-7.65L131.66-7.65Q131.25-6.27 130.51-5.10L130.51-5.10L130.51-5.10Q129.77-3.93 128.75-2.98L128.75-2.98L128.75-2.98Q127.72-2.04 126.48-1.38L126.48-1.38L126.48-1.38Q125.24-0.72 123.83-0.36L123.83-0.36L123.83-0.36Q122.42 0 120.92 0L120.92 0L111.62 0L111.62-21.09L120.92-21.09L120.92-21.09Q122.42-21.09 123.82-20.74L123.82-20.74L123.82-20.74Q125.23-20.39 126.47-19.74L126.47-19.74L126.47-19.74Q127.71-19.09 128.74-18.15L128.74-18.15L128.74-18.15Q129.77-17.21 130.51-16.05L130.51-16.05L130.51-16.05Q131.25-14.88 131.66-13.50L131.66-13.50L131.66-13.50Q132.07-12.11 132.07-10.58zM126.17-10.58L126.17-10.58L126.17-10.58Q126.17-12.29 125.75-13.84L125.75-13.84L125.75-13.84Q125.33-15.38 124.45-16.55L124.45-16.55L124.45-16.55Q123.57-17.72 122.22-18.41L122.22-18.41L122.22-18.41Q120.86-19.10 118.97-19.10L118.97-19.10L117.44-19.10L117.44-2.05L118.97-2.05L118.97-2.05Q120.83-2.05 122.19-2.75L122.19-2.75L122.19-2.75Q123.54-3.44 124.43-4.62L124.43-4.62L124.43-4.62Q125.32-5.80 125.74-7.34L125.74-7.34L125.74-7.34Q126.17-8.88 126.17-10.58" fill="#f91a10" stroke="none" stroke-width="none" transform="translate(-104.04498291015625,8.552216898600262)" style="fill: rgb(249, 26, 16); animation-play-state: running; animation-delay: 0s;"></path></g><g class="path" style="transform: scale(1); transform-origin: 38.235px -0.112783px; animation: 1s linear -0.22s infinite normal forwards running beat-1a988666-a248-4063-add7-05eba05ed67d;"><path d="M149.47-15.42L149.47-15.42L146.69-10.81L146.69-10.81Q146.51-11.40 146.24-12.13L146.24-12.13L146.24-12.13Q145.96-12.86 145.55-13.50L145.55-13.50L145.55-13.50Q145.14-14.14 144.57-14.57L144.57-14.57L144.57-14.57Q143.99-15 143.25-15L143.25-15L143.25-15Q142.56-15 142.05-14.65L142.05-14.65L142.05-14.65Q141.55-14.30 141.20-13.73L141.20-13.73L141.20-13.73Q140.84-13.17 140.62-12.46L140.62-12.46L140.62-12.46Q140.39-11.75 140.27-11.02L140.27-11.02L140.27-11.02Q140.14-10.30 140.10-9.63L140.10-9.63L140.10-9.63Q140.05-8.96 140.05-8.48L140.05-8.48L140.05 0L135.09 0L135.09-16.92L136.99-16.92L139.00-12.98L139.00-12.98Q139.41-13.93 139.94-14.73L139.94-14.73L139.94-14.73Q140.46-15.53 141.15-16.11L141.15-16.11L141.15-16.11Q141.84-16.68 142.71-17.01L142.71-17.01L142.71-17.01Q143.58-17.33 144.68-17.33L144.68-17.33L144.68-17.33Q145.25-17.33 145.96-17.23L145.96-17.23L145.96-17.23Q146.66-17.14 147.33-16.91L147.33-16.91L147.33-16.91Q148.01-16.68 148.58-16.32L148.58-16.32L148.58-16.32Q149.15-15.95 149.47-15.42" fill="#f91a10" stroke="none" stroke-width="none" transform="translate(-104.04498291015625,8.552216898600262)" style="fill: rgb(0, 0, 0); animation-play-state: running; animation-delay: 0s;"></path></g><g class="path" style="transform: scale(1); transform-origin: 55.485px 0.0572166px; animation: 1s linear -0.165s infinite normal forwards running beat-1a988666-a248-4063-add7-05eba05ed67d;"><path d="M168.97-8.50L168.97-8.50L168.97-8.50Q168.97-7.18 168.62-6.02L168.62-6.02L168.62-6.02Q168.27-4.86 167.64-3.88L167.64-3.88L167.64-3.88Q167.02-2.90 166.14-2.12L166.14-2.12L166.14-2.12Q165.26-1.33 164.22-0.79L164.22-0.79L164.22-0.79Q163.17-0.25 161.98 0.04L161.98 0.04L161.98 0.04Q160.78 0.34 159.52 0.34L159.52 0.34L159.52 0.34Q158.26 0.34 157.08 0.04L157.08 0.04L157.08 0.04Q155.89-0.25 154.84-0.79L154.84-0.79L154.84-0.79Q153.79-1.33 152.92-2.12L152.92-2.12L152.92-2.12Q152.04-2.90 151.41-3.88L151.41-3.88L151.41-3.88Q150.79-4.86 150.44-6.03L150.44-6.03L150.44-6.03Q150.09-7.19 150.09-8.50L150.09-8.50L150.09-8.50Q150.09-9.80 150.44-10.96L150.44-10.96L150.44-10.96Q150.79-12.13 151.41-13.11L151.41-13.11L151.41-13.11Q152.04-14.09 152.92-14.88L152.92-14.88L152.92-14.88Q153.79-15.66 154.84-16.20L154.84-16.20L154.84-16.20Q155.89-16.74 157.08-17.04L157.08-17.04L157.08-17.04Q158.26-17.33 159.52-17.33L159.52-17.33L159.52-17.33Q160.78-17.33 161.98-17.04L161.98-17.04L161.98-17.04Q163.17-16.74 164.22-16.20L164.22-16.20L164.22-16.20Q165.26-15.66 166.14-14.88L166.14-14.88L166.14-14.88Q167.02-14.09 167.64-13.11L167.64-13.11L167.64-13.11Q168.27-12.13 168.62-10.96L168.62-10.96L168.62-10.96Q168.97-9.80 168.97-8.50zM163.93-8.50L163.93-8.50L163.93-8.50Q163.93-9.20 163.85-9.98L163.85-9.98L163.85-9.98Q163.77-10.77 163.58-11.52L163.58-11.52L163.58-11.52Q163.39-12.28 163.06-12.97L163.06-12.97L163.06-12.97Q162.73-13.67 162.25-14.19L162.25-14.19L162.25-14.19Q161.76-14.71 161.09-15.02L161.09-15.02L161.09-15.02Q160.42-15.34 159.52-15.34L159.52-15.34L159.52-15.34Q158.67-15.34 158.01-15.01L158.01-15.01L158.01-15.01Q157.35-14.69 156.86-14.16L156.86-14.16L156.86-14.16Q156.37-13.62 156.04-12.92L156.04-12.92L156.04-12.92Q155.71-12.22 155.51-11.46L155.51-11.46L155.51-11.46Q155.30-10.71 155.21-9.94L155.21-9.94L155.21-9.94Q155.13-9.17 155.13-8.50L155.13-8.50L155.13-8.50Q155.13-7.82 155.21-7.05L155.21-7.05L155.21-7.05Q155.30-6.28 155.51-5.52L155.51-5.52L155.51-5.52Q155.71-4.76 156.04-4.06L156.04-4.06L156.04-4.06Q156.37-3.37 156.86-2.83L156.86-2.83L156.86-2.83Q157.35-2.30 158.01-1.98L158.01-1.98L158.01-1.98Q158.67-1.66 159.52-1.66L159.52-1.66L159.52-1.66Q160.40-1.66 161.07-1.97L161.07-1.97L161.07-1.97Q161.75-2.29 162.24-2.81L162.24-2.81L162.24-2.81Q162.73-3.34 163.05-4.03L163.05-4.03L163.05-4.03Q163.37-4.72 163.57-5.48L163.57-5.48L163.57-5.48Q163.77-6.24 163.85-7.02L163.85-7.02L163.85-7.02Q163.93-7.79 163.93-8.50" fill="#f91a10" stroke="none" stroke-width="none" transform="translate(-104.04498291015625,8.552216898600262)" style="fill: rgb(249, 26, 16); animation-play-state: running; animation-delay: 0s;"></path></g><g class="path" style="transform: scale(1); transform-origin: 77.04px 3.79222px; animation: 1s linear -0.11s infinite normal forwards running beat-1a988666-a248-4063-add7-05eba05ed67d;"><path d="M190.08-8.50L190.08-8.50L190.08-8.50Q190.08-6.65 189.52-5.04L189.52-5.04L189.52-5.04Q188.96-3.43 187.91-2.23L187.91-2.23L187.91-2.23Q186.86-1.04 185.33-0.35L185.33-0.35L185.33-0.35Q183.81 0.34 181.88 0.34L181.88 0.34L181.88 0.34Q180.40 0.34 179.16-0.24L179.16-0.24L179.16-0.24Q177.92-0.82 177.04-2.02L177.04-2.02L177.04 7.81L172.09 7.81L172.09-16.92L173.99-16.92L176.19-13.24L176.19-13.24Q176.51-14.17 177.08-14.92L177.08-14.92L177.08-14.92Q177.64-15.67 178.38-16.21L178.38-16.21L178.38-16.21Q179.12-16.74 180.01-17.04L180.01-17.04L180.01-17.04Q180.89-17.33 181.88-17.33L181.88-17.33L181.88-17.33Q183.81-17.33 185.33-16.64L185.33-16.64L185.33-16.64Q186.86-15.95 187.91-14.76L187.91-14.76L187.91-14.76Q188.96-13.56 189.52-11.95L189.52-11.95L189.52-11.95Q190.08-10.34 190.08-8.50zM185.05-8.50L185.05-8.50L185.05-8.50Q185.05-9.14 184.99-9.87L184.99-9.87L184.99-9.87Q184.92-10.59 184.76-11.31L184.76-11.31L184.76-11.31Q184.60-12.03 184.31-12.69L184.31-12.69L184.31-12.69Q184.03-13.34 183.59-13.85L183.59-13.85L183.59-13.85Q183.15-14.36 182.53-14.66L182.53-14.66L182.53-14.66Q181.90-14.96 181.08-14.96L181.08-14.96L181.08-14.96Q180.23-14.96 179.61-14.66L179.61-14.66L179.61-14.66Q178.99-14.37 178.54-13.86L178.54-13.86L178.54-13.86Q178.10-13.36 177.81-12.71L177.81-12.71L177.81-12.71Q177.52-12.06 177.36-11.34L177.36-11.34L177.36-11.34Q177.20-10.62 177.14-9.89L177.14-9.89L177.14-9.89Q177.07-9.16 177.07-8.50L177.07-8.50L177.07-8.50Q177.07-7.91 177.16-7.20L177.16-7.20L177.16-7.20Q177.25-6.49 177.44-5.77L177.44-5.77L177.44-5.77Q177.63-5.05 177.93-4.38L177.93-4.38L177.93-4.38Q178.24-3.71 178.69-3.18L178.69-3.18L178.69-3.18Q179.14-2.65 179.73-2.34L179.73-2.34L179.73-2.34Q180.32-2.02 181.08-2.02L181.08-2.02L181.08-2.02Q181.92-2.02 182.53-2.32L182.53-2.32L182.53-2.32Q183.15-2.62 183.59-3.13L183.59-3.13L183.59-3.13Q184.03-3.63 184.31-4.29L184.31-4.29L184.31-4.29Q184.60-4.95 184.76-5.67L184.76-5.67L184.76-5.67Q184.92-6.39 184.99-7.12L184.99-7.12L184.99-7.12Q185.05-7.85 185.05-8.50" fill="#f91a10" stroke="none" stroke-width="none" transform="translate(-104.04498291015625,8.552216898600262)" style="fill: rgb(0, 0, 0); animation-play-state: running; animation-delay: 0s;"></path></g><g class="path" style="transform: scale(1); transform-origin: 104.57px -5.66778px; animation: 1s linear -0.055s infinite normal forwards running beat-1a988666-a248-4063-add7-05eba05ed67d;"><path d="M209.27-5.82L209.27-5.82L206.26-5.82L206.26-5.82Q206.26-7.08 206.60-7.98L206.60-7.98L206.60-7.98Q206.94-8.88 207.44-9.59L207.44-9.59L207.44-9.59Q207.95-10.31 208.54-10.94L208.54-10.94L208.54-10.94Q209.14-11.57 209.65-12.27L209.65-12.27L209.65-12.27Q210.16-12.96 210.50-13.83L210.50-13.83L210.50-13.83Q210.83-14.69 210.83-15.89L210.83-15.89L210.83-15.89Q210.83-16.86 210.67-17.61L210.67-17.61L210.67-17.61Q210.50-18.37 210.14-18.88L210.14-18.88L210.14-18.88Q209.78-19.39 209.20-19.67L209.20-19.67L209.20-19.67Q208.62-19.94 207.80-19.94L207.80-19.94L207.80-19.94Q207.03-19.94 206.42-19.56L206.42-19.56L206.42-19.56Q205.81-19.17 205.38-18.60L205.38-18.60L205.38-18.60Q204.95-18.02 204.72-17.31L204.72-17.31L204.72-17.31Q204.49-16.60 204.49-15.94L204.49-15.94L200.46-18.87L200.46-18.87Q201.04-19.94 201.87-20.65L201.87-20.65L201.87-20.65Q202.71-21.37 203.70-21.81L203.70-21.81L203.70-21.81Q204.70-22.25 205.82-22.43L205.82-22.43L205.82-22.43Q206.94-22.62 208.08-22.62L208.08-22.62L208.08-22.62Q209.11-22.62 210.15-22.40L210.15-22.40L210.15-22.40Q211.19-22.18 212.15-21.75L212.15-21.75L212.15-21.75Q213.12-21.31 213.96-20.68L213.96-20.68L213.96-20.68Q214.80-20.05 215.43-19.23L215.43-19.23L215.43-19.23Q216.05-18.40 216.41-17.38L216.41-17.38L216.41-17.38Q216.77-16.36 216.77-15.18L216.77-15.18L216.77-15.18Q216.77-14.06 216.45-13.25L216.45-13.25L216.45-13.25Q216.12-12.44 215.60-11.83L215.60-11.83L215.60-11.83Q215.07-11.22 214.39-10.76L214.39-10.76L214.39-10.76Q213.72-10.30 213.02-9.90L213.02-9.90L213.02-9.90Q212.31-9.51 211.64-9.13L211.64-9.13L211.64-9.13Q210.97-8.75 210.44-8.28L210.44-8.28L210.44-8.28Q209.91-7.82 209.59-7.23L209.59-7.23L209.59-7.23Q209.27-6.64 209.27-5.82" fill="#f91a10" stroke="none" stroke-width="none" transform="translate(-104.04498291015625,8.552216898600262)" style="fill: rgb(249, 26, 16); animation-play-state: running; animation-delay: 0s;"></path></g><g class="path" style="transform: scale(1); transform-origin: 103.765px 6.36222px; animation: 1s linear 0s infinite normal forwards running beat-1a988666-a248-4063-add7-05eba05ed67d;"><path d="M210.48-2.20L210.48-2.20L210.48-2.20Q210.48-1.66 210.27-1.16L210.27-1.16L210.27-1.16Q210.06-0.67 209.69-0.31L209.69-0.31L209.69-0.31Q209.33 0.06 208.84 0.27L208.84 0.27L208.84 0.27Q208.34 0.48 207.80 0.48L207.80 0.48L207.80 0.48Q207.26 0.48 206.78 0.27L206.78 0.27L206.78 0.27Q206.29 0.06 205.93-0.31L205.93-0.31L205.93-0.31Q205.56-0.67 205.35-1.16L205.35-1.16L205.35-1.16Q205.14-1.66 205.14-2.20L205.14-2.20L205.14-2.20Q205.14-2.74 205.35-3.22L205.35-3.22L205.35-3.22Q205.56-3.71 205.93-4.07L205.93-4.07L205.93-4.07Q206.29-4.44 206.78-4.65L206.78-4.65L206.78-4.65Q207.26-4.86 207.80-4.86L207.80-4.86L207.80-4.86Q208.34-4.86 208.84-4.65L208.84-4.65L208.84-4.65Q209.33-4.44 209.69-4.07L209.69-4.07L209.69-4.07Q210.06-3.71 210.27-3.22L210.27-3.22L210.27-3.22Q210.48-2.74 210.48-2.20" fill="#f91a10" stroke="none" stroke-width="none" transform="translate(-104.04498291015625,8.552216898600262)" style="fill: rgb(0, 0, 0); animation-play-state: running; animation-delay: 0s;"></path></g></g>
</g>
</g>
<style id="beat-1a988666-a248-4063-add7-05eba05ed67d" data-anikit="">@keyframes beat-1a988666-a248-4063-add7-05eba05ed67d
{
  0% {
    animation-timing-function: cubic-bezier(0.1028,0.2484,0.1372,0.849);
    transform: scale(1);
  }
  34% {
    animation-timing-function: cubic-bezier(0.7116,0.2095,0.8159,0.6876);
    transform: scale(1.2);
  }
  68% {
    animation-timing-function: cubic-bezier(0.1475,0.2888,0.294,0.883);
    transform: scale(1.0268);
  }
  84% {
    animation-timing-function: cubic-bezier(0.8176,0.2193,0.867,0.6889);
    transform: scale(1.0932);
  }
  100% {
    transform: scale(1);
  }
}</style></svg>